<?xml version="1.0" standalone="no"?>
<!DOCTYPE svg PUBLIC "-//W3C//DTD SVG 20010904//EN"
 "http://www.w3.org/TR/2001/REC-SVG-20010904/DTD/svg10.dtd">
<svg version="1.0" xmlns="http://www.w3.org/2000/svg"
 width="530.000000pt" height="530.000000pt" viewBox="0 0 530.000000 530.000000"
 preserveAspectRatio="xMidYMid meet">
<metadata>
Created by potrace 1.11, written by Peter Selinger 2001-2013
</metadata>
<g transform="translate(0.000000,530.000000) scale(0.100000,-0.100000)"
fill="#000000" stroke="none">
<path d="M4090 5168 c-7 -18 -13 -39 -13 -45 1 -7 -3 -13 -7 -13 -5 0 -20 -24
-33 -52 -62 -134 -102 -214 -110 -219 -5 -3 -8 -9 -8 -13 1 -3 -14 -37 -33
-75 -19 -38 -32 -72 -29 -75 4 -3 2 -6 -3 -6 -6 0 -16 -16 -24 -35 -8 -19 -18
-35 -22 -35 -5 0 -7 -4 -3 -9 3 -5 1 -12 -5 -16 -5 -3 -10 -15 -10 -26 0 -11
-4 -18 -9 -15 -5 3 -11 -4 -15 -17 -3 -12 -6 -24 -7 -27 -1 -3 -12 -24 -25
-47 -13 -24 -20 -43 -16 -43 4 0 3 -4 -3 -8 -17 -12 -65 -113 -59 -123 3 -5 1
-9 -5 -9 -5 0 -20 -22 -32 -50 -12 -27 -27 -50 -31 -50 -5 0 -7 -4 -4 -8 3 -5
-4 -23 -15 -40 -10 -18 -19 -39 -19 -47 0 -8 -3 -15 -7 -15 -8 0 -49 -92 -44
-99 1 -2 -3 -7 -11 -12 -7 -5 -13 -12 -14 -16 -1 -14 -129 -268 -136 -271 -5
-2 -8 -11 -8 -20 0 -9 -7 -26 -15 -36 -8 -10 -12 -23 -9 -27 3 -5 1 -9 -4 -9
-8 0 -23 -35 -21 -49 0 -2 -3 -7 -8 -10 -13 -9 -93 -171 -93 -187 0 -9 -5 -12
-12 -8 -7 5 -9 2 -5 -9 3 -9 3 -17 -1 -19 -13 -6 -52 -85 -45 -92 3 -3 1 -6
-6 -6 -7 0 -9 -4 -6 -10 3 -5 2 -10 -4 -10 -5 0 -12 -13 -16 -30 -4 -16 -11
-30 -17 -30 -6 0 -8 -6 -5 -14 3 -8 0 -16 -6 -19 -7 -3 -21 -28 -32 -56 -11
-28 -23 -51 -27 -51 -4 0 -7 -3 -6 -7 1 -5 -9 -28 -21 -53 -13 -25 -24 -47
-23 -50 0 -3 -6 -12 -13 -20 -7 -8 -17 -27 -20 -42 -4 -16 -11 -28 -15 -28 -5
0 -12 -10 -15 -22 -11 -36 -76 -170 -99 -202 -11 -17 -14 -26 -6 -21 8 5 6 -4
-6 -21 -11 -16 -33 -56 -49 -89 -16 -33 -33 -62 -37 -63 -5 -2 -6 -7 -3 -12 3
-5 -2 -16 -11 -24 -8 -9 -12 -16 -9 -16 4 0 -3 -16 -14 -36 -12 -19 -19 -40
-16 -45 4 -5 2 -9 -3 -9 -5 0 -33 -49 -62 -110 -30 -60 -57 -110 -61 -110 -4
0 -6 -6 -6 -12 2 -15 -144 -312 -155 -316 -5 -2 -8 -8 -8 -14 0 -6 -28 -68
-62 -139 -59 -119 -88 -156 -88 -110 0 11 -5 23 -10 26 -6 4 -8 11 -5 16 4 5
2 9 -4 9 -6 0 -13 11 -17 25 -3 14 -11 25 -17 25 -6 0 -8 2 -5 5 6 6 -94 208
-115 234 -10 12 -9 13 3 6 8 -5 5 4 -8 19 -12 16 -22 35 -22 42 0 8 -4 14 -8
14 -5 0 -14 18 -21 40 -6 22 -16 40 -22 40 -6 0 -7 5 -4 10 3 6 1 10 -4 10 -6
0 -11 3 -10 8 2 15 -14 52 -22 52 -5 0 -8 3 -7 8 4 11 -53 126 -66 134 -6 4
-8 8 -3 8 10 0 -32 83 -47 92 -6 4 -7 8 -3 8 4 0 -4 20 -18 43 -14 24 -25 51
-25 61 0 9 -7 19 -15 22 -9 4 -14 11 -13 18 3 14 -31 78 -46 88 -6 4 -7 8 -2
8 5 0 3 7 -4 15 -7 8 -9 15 -4 15 5 0 5 4 -1 8 -13 9 -61 104 -58 114 2 4 -1
8 -5 8 -9 0 -44 79 -42 94 1 5 -3 12 -8 15 -8 5 -137 253 -144 278 -2 5 -24
48 -50 98 -27 49 -48 95 -48 102 0 7 -4 13 -10 13 -5 0 -9 3 -8 8 1 4 -17 44
-40 89 -23 46 -42 90 -42 98 0 10 -5 13 -12 9 -8 -5 -9 -2 -5 9 3 10 3 17 -2
17 -5 0 -11 10 -14 21 -4 15 -11 20 -22 15 -9 -3 -14 -2 -11 3 3 4 -21 7 -54
5 -43 -3 -60 0 -60 9 0 8 -3 8 -8 1 -10 -14 -232 -14 -232 0 0 6 -5 4 -10 -4
-8 -12 -13 -13 -29 -3 -14 9 -22 9 -27 2 -3 -6 -17 -9 -30 -6 -13 2 -24 2 -24
-1 0 -14 25 -72 31 -72 4 0 10 -11 13 -25 4 -14 11 -25 17 -25 6 0 8 -4 4 -9
-3 -5 3 -17 12 -27 10 -10 17 -20 16 -23 -2 -9 30 -75 40 -82 4 -3 9 -13 11
-21 1 -9 8 -23 15 -32 7 -9 11 -16 7 -16 -3 0 7 -21 22 -47 15 -27 43 -79 62
-118 18 -38 39 -73 44 -77 6 -4 7 -8 3 -8 -5 0 0 -15 11 -32 28 -46 76 -142
73 -147 -2 -2 2 -7 7 -10 6 -3 12 -13 14 -21 2 -8 9 -21 16 -28 7 -8 10 -18 7
-23 -4 -5 -2 -9 3 -9 5 0 19 -24 33 -52 13 -29 27 -54 32 -56 4 -2 7 -12 7
-22 0 -10 3 -20 8 -22 4 -1 18 -28 32 -58 14 -30 31 -59 38 -63 7 -5 10 -12 7
-17 -3 -5 -1 -11 5 -15 6 -4 8 -10 5 -15 -3 -4 2 -11 11 -14 8 -3 12 -11 9
-17 -4 -5 0 -18 8 -27 8 -9 54 -95 102 -189 48 -95 92 -173 99 -173 7 0 6 -3
-2 -9 -10 -6 -10 -10 3 -21 8 -7 15 -19 15 -26 0 -8 5 -14 12 -14 6 0 8 -3 5
-6 -4 -4 2 -19 13 -34 11 -16 20 -35 20 -44 0 -9 5 -16 11 -16 5 0 7 -4 4 -10
-3 -5 -1 -10 4 -10 6 0 11 -6 11 -13 0 -7 13 -34 29 -59 16 -25 27 -49 24 -52
-3 -3 2 -12 11 -21 9 -9 16 -23 16 -31 0 -8 5 -14 10 -14 6 0 10 -6 10 -14 0
-7 17 -44 38 -82 20 -38 50 -97 66 -132 16 -34 34 -62 38 -62 5 0 6 -5 3 -10
-3 -6 -1 -10 5 -10 6 0 8 -4 5 -10 -3 -5 -1 -10 6 -10 7 0 10 -3 7 -6 -4 -3 9
-33 28 -66 19 -33 34 -66 34 -74 0 -8 4 -14 8 -14 9 0 42 -69 42 -87 0 -6 7
-13 15 -17 8 -3 14 -9 13 -13 -2 -4 17 -47 41 -95 38 -73 49 -87 73 -90 16 -3
28 0 28 6 0 6 5 4 10 -4 9 -13 11 -13 20 0 8 12 10 12 10 1 0 -11 3 -11 17 0
15 12 16 12 10 -3 -4 -12 -2 -15 8 -11 8 3 12 9 9 14 -3 5 2 6 10 3 9 -3 13
-11 9 -18 -4 -6 1 -5 10 3 9 7 24 11 32 7 8 -3 15 0 15 7 0 8 4 7 10 -3 8 -12
11 -13 19 -1 6 9 10 10 16 2 9 -16 32 16 80 114 22 44 42 82 46 85 3 3 12 22
20 42 7 21 17 38 22 38 4 0 6 4 2 9 -3 5 -1 12 5 16 10 6 41 72 37 78 -1 2 6
11 15 21 10 10 18 26 18 37 0 10 4 19 9 19 5 0 15 15 22 33 7 17 30 63 51 101
21 37 39 75 40 85 2 9 11 22 21 30 10 7 16 19 13 26 -3 8 2 19 10 25 8 7 14
19 14 26 0 8 5 14 11 14 5 0 7 5 4 10 -3 6 -1 10 4 10 6 0 10 3 10 8 -3 15 23
72 34 72 6 0 8 2 5 6 -3 3 5 24 18 47 13 23 33 63 45 90 12 26 26 47 32 47 6
0 8 3 4 6 -7 7 49 120 64 129 5 4 7 11 4 16 -4 5 -1 9 6 9 7 0 10 3 7 6 -4 3
8 31 26 62 42 74 79 154 79 169 0 7 3 10 7 8 4 -3 16 16 26 40 10 25 22 45 26
45 4 0 7 3 6 8 -1 4 3 17 10 30 7 12 10 22 6 22 -4 0 3 9 15 19 12 11 21 21
19 23 -4 4 34 91 42 98 4 3 28 50 56 105 27 55 56 106 64 113 8 8 10 11 3 8
-13 -7 35 85 50 95 5 3 8 9 7 13 -3 9 92 199 103 207 4 3 9 16 10 27 1 12 7
22 14 22 7 0 12 3 11 8 -4 11 46 112 55 112 4 0 6 4 2 9 -3 5 2 17 11 25 8 9
12 16 9 16 -4 0 5 20 19 45 15 25 24 45 21 45 -3 0 6 16 21 35 14 19 23 35 19
35 -5 0 -1 8 8 18 8 9 19 29 22 45 4 15 11 27 16 27 5 0 9 7 9 15 0 8 5 15 10
15 6 0 9 3 8 8 -1 4 3 17 10 30 7 12 9 22 5 22 -4 0 -3 4 2 8 6 4 17 21 25 37
8 17 21 38 30 49 8 10 15 21 14 25 -2 15 48 111 58 111 6 0 9 3 5 6 -3 4 0 19
9 35 8 16 14 32 13 35 0 4 5 10 12 15 7 4 13 13 15 21 1 7 22 50 47 96 25 45
43 82 40 82 -3 0 2 9 12 20 10 11 15 20 12 20 -3 0 9 27 28 60 45 80 97 188
93 196 -2 3 5 10 15 15 9 6 15 14 12 20 -4 5 -1 9 5 9 7 0 10 7 6 15 -3 8 -1
15 4 15 5 0 12 11 16 25 3 14 10 25 15 25 5 0 9 7 9 15 0 8 5 15 12 15 6 0 9
3 5 6 -7 7 62 144 78 156 6 4 6 8 2 8 -5 0 0 12 11 28 11 15 20 30 21 34 3 16
15 43 20 48 8 6 28 52 29 64 0 5 4 12 9 15 4 3 17 24 28 46 11 22 24 43 30 47
5 4 7 8 2 8 -4 0 0 11 9 25 9 14 14 25 10 25 -3 0 6 16 19 36 14 20 25 45 25
55 0 18 -13 19 -263 19 l-263 0 -14 -32z"/>
<path d="M3040 3180 c0 -5 -7 -7 -15 -4 -8 4 -15 2 -15 -3 0 -5 -16 -9 -35 -8
-19 1 -32 -2 -29 -6 3 -5 -6 -10 -20 -10 -14 -1 -29 -2 -33 -4 -21 -5 -51 -18
-76 -31 -15 -8 -32 -12 -37 -9 -6 3 -13 -1 -16 -9 -3 -9 -15 -16 -25 -16 -10
0 -19 -5 -19 -11 0 -5 -4 -7 -10 -4 -5 3 -10 2 -10 -4 0 -6 -11 -13 -24 -17
-14 -3 -27 -12 -30 -21 -3 -8 -10 -11 -16 -8 -5 3 -10 1 -10 -4 0 -6 -4 -11
-10 -11 -15 0 -147 -124 -225 -213 -30 -33 -89 -127 -104 -164 -8 -18 -18 -33
-24 -33 -6 0 -8 -3 -4 -6 3 -4 0 -19 -8 -34 -8 -15 -11 -30 -8 -34 4 -3 1 -6
-5 -6 -7 0 -11 -3 -10 -7 1 -5 -4 -26 -11 -48 -7 -22 -15 -60 -18 -85 -3 -25
-8 -49 -12 -55 -4 -5 -7 -45 -7 -87 1 -43 -2 -78 -6 -78 -3 0 -4 -8 -2 -17 2
-10 5 -43 7 -74 2 -31 7 -61 11 -68 4 -6 1 -11 -6 -11 -9 0 -9 -3 -2 -8 6 -4
11 -14 12 -22 1 -17 10 -72 12 -80 2 -3 2 -8 1 -12 0 -5 4 -8 10 -8 5 0 8 -4
4 -10 -3 -5 -2 -17 3 -27 6 -10 14 -29 20 -43 9 -24 54 -121 59 -129 1 -2 9 3
17 12 8 8 12 17 9 21 -4 3 0 6 7 6 7 0 10 3 7 6 -6 6 18 59 33 74 11 11 94
185 92 193 -1 4 2 7 6 7 12 0 9 63 -3 72 -6 5 -5 8 3 8 9 0 10 5 3 18 -9 18
-7 177 4 237 14 79 18 95 24 95 4 0 8 6 8 14 0 35 106 216 126 216 6 0 8 3 4
6 -6 6 30 44 77 82 16 12 25 22 20 22 -5 0 10 12 34 26 23 14 42 30 42 36 0 6
3 9 6 5 3 -3 25 5 47 18 36 20 49 38 94 126 29 57 52 110 53 117 0 6 4 12 9
12 5 0 12 11 15 25 4 14 11 25 16 25 5 0 7 6 4 14 -3 8 -1 17 5 21 15 9 14 22
-4 29 -8 3 -15 1 -15 -4z"/>
<path d="M3612 3104 c-7 -8 -12 -16 -12 -19 1 -22 -1 -25 -12 -19 -7 4 -8 3
-4 -4 7 -11 -11 -51 -27 -63 -5 -3 -8 -9 -7 -13 2 -4 -10 -31 -26 -59 -16 -29
-29 -57 -30 -63 -1 -6 20 -19 47 -28 27 -10 49 -21 49 -25 0 -3 13 -12 29 -19
16 -7 41 -24 55 -37 15 -14 29 -25 32 -25 9 0 106 -102 129 -134 32 -46 77
-121 80 -136 1 -3 5 -12 8 -20 17 -40 35 -100 30 -100 -3 0 0 -7 7 -15 6 -8 9
-19 6 -24 -4 -5 -2 -12 3 -16 6 -3 8 -12 5 -20 -4 -8 -2 -28 4 -43 6 -17 6
-35 2 -43 -6 -8 -4 -16 2 -20 8 -5 6 -15 -5 -33 -12 -18 -13 -24 -4 -20 8 3
14 -2 14 -10 0 -8 -4 -13 -9 -10 -4 3 -6 -5 -4 -18 1 -13 -1 -36 -6 -53 -5
-16 -11 -42 -12 -56 -2 -14 -9 -35 -15 -47 -6 -12 -9 -22 -6 -22 3 0 -11 -31
-30 -70 -19 -38 -40 -70 -47 -70 -6 0 -9 -3 -5 -6 6 -6 -1 -17 -45 -65 -15
-16 -25 -29 -21 -29 3 0 -5 -9 -18 -21 -13 -11 -40 -36 -60 -54 -20 -19 -39
-31 -43 -28 -3 3 -8 -2 -12 -11 -3 -9 -12 -16 -20 -16 -8 0 -14 -5 -14 -11 0
-5 -4 -8 -9 -5 -5 4 -11 3 -13 -2 -4 -10 -112 -61 -141 -66 -12 -3 -22 -5 -22
-6 0 -4 -99 -23 -130 -24 -16 -1 -36 -5 -42 -9 -7 -5 -13 -4 -13 0 0 5 -9 9
-20 10 -13 1 -18 -2 -14 -9 5 -7 2 -8 -5 -3 -7 4 -42 9 -78 11 -35 1 -70 8
-77 13 -7 6 -16 8 -19 4 -4 -3 -14 0 -24 8 -15 12 -16 12 -8 -1 7 -12 6 -13
-7 -3 -8 7 -18 10 -21 6 -4 -3 -7 -1 -7 6 0 7 -4 9 -10 6 -5 -3 -10 -1 -10 5
0 6 -5 8 -10 5 -6 -4 -17 -1 -25 5 -8 7 -15 9 -15 6 0 -4 -7 0 -16 8 -8 9 -22
16 -30 16 -8 0 -14 4 -14 9 0 5 -9 11 -21 14 -15 4 -23 -1 -31 -19 -6 -13 -15
-24 -20 -24 -4 0 -8 -6 -8 -14 0 -7 -20 -51 -45 -98 -25 -47 -45 -90 -45 -96
0 -6 10 -14 23 -18 12 -3 29 -12 37 -19 8 -7 33 -19 55 -26 22 -7 46 -18 54
-23 13 -10 26 -14 68 -21 12 -2 28 -7 35 -11 7 -5 22 -10 33 -11 11 -1 34 -5
50 -8 103 -18 211 -22 320 -10 39 4 76 7 83 8 6 0 12 3 12 7 0 4 10 6 23 5 12
-1 27 0 32 4 6 3 19 7 29 8 11 2 26 9 35 16 12 10 13 9 7 -2 -6 -9 -1 -8 16 3
14 9 28 13 31 9 4 -3 7 0 7 7 0 7 3 10 6 7 4 -3 16 -1 28 5 11 7 24 11 29 10
4 -1 7 2 7 7 0 8 21 17 44 19 5 0 13 7 18 16 5 9 15 16 23 16 13 0 117 77 123
92 2 4 8 6 13 2 5 -3 9 3 9 12 0 10 3 15 6 11 7 -6 113 104 131 136 7 12 12
18 13 12 0 -5 12 10 27 35 15 25 29 47 33 50 4 3 20 32 36 65 16 33 33 63 37
66 5 3 8 9 8 13 -2 18 13 66 20 66 4 0 6 9 4 20 -2 11 1 22 6 25 5 4 7 11 4
16 -4 5 -3 9 2 9 4 0 9 21 10 47 2 26 6 49 10 52 5 3 8 38 7 76 0 39 3 75 8
82 5 6 5 14 0 17 -5 3 -8 20 -7 38 1 18 -2 45 -6 61 -5 17 -4 27 3 27 7 0 6 5
-2 15 -6 8 -9 19 -6 24 4 5 2 12 -2 15 -5 3 -8 19 -7 36 1 16 -3 30 -8 30 -6
0 -7 3 -4 7 4 3 2 12 -4 20 -6 7 -9 13 -5 13 10 0 -57 163 -74 180 -3 3 -6 11
-8 19 -4 17 -63 105 -74 109 -4 2 -8 9 -8 16 0 7 -14 25 -32 40 -17 14 -29 26
-25 26 9 0 -87 91 -143 135 -25 19 -50 40 -57 45 -7 6 -17 10 -23 10 -5 0 -10
5 -10 10 0 6 -6 10 -14 10 -8 0 -22 7 -30 16 -9 8 -16 13 -16 10 0 -3 -15 2
-32 12 -51 28 -62 31 -76 16z"/>
<path d="M2057 681 c-9 -15 -14 -31 -10 -35 3 -3 1 -6 -5 -6 -7 0 -12 -7 -12
-15 0 -7 -8 -19 -17 -24 -17 -10 -16 -10 2 -11 18 -1 18 -2 -2 -10 -28 -11
-29 -19 -5 -36 26 -20 37 -16 17 6 -10 11 -13 20 -7 20 7 0 12 -5 12 -11 0 -5
5 -7 12 -3 7 4 8 3 4 -4 -4 -7 -3 -12 2 -12 5 0 14 11 21 24 l13 24 31 -29
c16 -16 37 -29 46 -29 13 1 13 3 -3 15 -11 8 -17 17 -14 20 3 3 12 -1 21 -9 8
-8 18 -12 23 -8 5 4 3 0 -4 -9 -10 -13 -8 -16 17 -16 22 0 28 4 23 16 -5 14
-4 14 9 1 18 -17 21 -50 6 -50 -6 0 -8 -2 -5 -5 13 -13 36 8 33 30 -1 14 1 23
4 21 3 -2 14 7 24 20 21 28 12 32 -15 7 -10 -9 -18 -11 -18 -6 0 6 8 14 18 18
15 6 14 8 -6 16 -13 5 -21 13 -18 18 3 5 -1 11 -9 15 -8 3 -15 10 -15 16 0 7
7 5 15 -4 9 -8 14 -18 13 -21 -3 -5 76 -45 89 -45 3 0 0 6 -6 14 -15 18 5 34
22 17 9 -9 7 -10 -8 -5 -17 7 -18 5 -8 -7 10 -12 8 -20 -12 -41 -19 -20 -21
-27 -10 -32 8 -3 17 3 20 15 5 15 10 17 20 9 9 -8 15 -8 20 0 3 5 1 10 -4 10
-6 0 -11 5 -11 10 0 6 8 5 20 -2 11 -7 20 -16 20 -21 0 -4 -5 -5 -11 -1 -7 4
-10 1 -7 -6 2 -7 13 -15 23 -16 11 -2 21 -8 23 -13 2 -6 9 -11 15 -11 6 0 1
10 -11 23 -12 13 -19 27 -15 30 3 4 1 7 -6 7 -7 0 -10 4 -7 9 3 5 -2 15 -11
22 -14 12 -16 12 -8 0 5 -9 4 -12 -3 -8 -5 4 -8 15 -5 26 3 10 -9 40 -26 67
-17 27 -31 43 -31 36 0 -8 -5 -10 -12 -5 -21 12 -38 12 -38 0 0 -7 -5 -5 -10
3 -9 13 -10 13 -10 0 0 -13 -1 -13 -10 0 -5 8 -10 11 -10 5 0 -8 -54 -13 -62
-5 -2 1 -16 3 -31 4 -22 2 -27 -1 -22 -13 4 -12 2 -12 -9 2 -10 14 -15 15 -19
5 -4 -10 -6 -10 -6 0 -2 20 -16 14 -34 -17z m250 13 c-3 -4 -2 -15 4 -25 7
-13 6 -19 -1 -19 -6 0 -8 -5 -4 -12 4 -6 3 -8 -2 -5 -5 3 -9 18 -8 34 3 34 2
33 11 33 3 0 3 -3 0 -6z m-217 -29 c0 -8 -4 -15 -8 -15 -5 0 -9 7 -9 15 0 8 4
15 9 15 4 0 8 -7 8 -15z m56 -12 c-4 -4 -12 -1 -19 7 -9 10 -9 11 1 6 7 -4 12
-2 13 6 0 11 2 11 6 0 3 -7 2 -16 -1 -19z m108 11 c3 -8 2 -12 -4 -9 -6 3 -10
10 -10 16 0 14 7 11 14 -7z m-31 -11 c-3 -7 -6 -13 -8 -13 -2 0 -5 6 -8 13 -3
8 1 14 8 14 7 0 11 -6 8 -14z m130 -14 c-8 -8 -13 -7 -18 2 -6 8 -4 10 5 4 10
-6 12 -4 6 11 -6 15 -5 17 5 7 9 -10 10 -16 2 -24z m-213 -5 c0 -2 -7 -4 -15
-4 -8 0 -15 4 -15 10 0 5 7 7 15 4 8 -4 15 -8 15 -10z m20 -9 c-7 -8 -16 -15
-21 -15 -5 0 -1 8 9 18 20 22 31 19 12 -3z m130 0 c14 -19 14 -19 -2 -6 -10 7
-18 18 -18 24 0 6 1 8 3 6 1 -2 9 -13 17 -24z m-175 -23 c6 2 11 -8 12 -22 2
-24 2 -24 -5 -2 -4 13 -11 22 -17 20 -5 -2 -11 8 -12 22 -2 24 -2 24 5 2 4
-13 12 -22 17 -20z m82 6 c-3 -8 -6 -5 -6 6 -1 11 2 17 5 13 3 -3 4 -12 1 -19z
m28 2 c-3 -4 1 -10 9 -13 7 -3 14 -17 14 -30 l0 -25 -24 21 c-26 22 -34 37 -9
17 9 -7 19 -10 22 -6 4 4 1 11 -7 16 -7 5 -15 16 -16 24 -1 9 2 14 7 10 5 -3
7 -9 4 -14z m97 -2 c-7 -7 -12 -8 -12 -2 0 14 12 26 19 19 2 -3 -1 -11 -7 -17z
m58 12 c0 -5 -2 -10 -4 -10 -3 0 -8 5 -11 10 -3 6 -1 10 4 10 6 0 11 -4 11
-10z m-315 -30 c0 -7 -6 -14 -13 -16 -7 -1 -8 0 -2 3 5 2 10 9 10 14 0 6 -4 8
-9 4 -5 -3 -12 -1 -15 4 -4 5 2 8 11 7 10 -2 18 -9 18 -16z m115 0 c8 -5 11
-10 5 -10 -5 0 -2 -5 8 -11 9 -5 17 -15 17 -21 0 -6 -11 1 -24 15 -13 14 -27
23 -30 20 -3 -4 -6 -1 -6 5 0 14 10 15 30 2z"/>
<path d="M2076 563 c-3 -4 -6 -11 -6 -16 0 -6 3 -8 6 -4 4 3 21 -5 40 -19 19
-15 38 -23 45 -18 8 5 9 3 4 -6 -5 -9 -4 -11 4 -6 15 10 3 29 -15 22 -8 -3
-14 -2 -14 2 0 12 -57 52 -64 45z"/>
<path d="M2298 548 c-10 -12 -19 -26 -19 -30 -1 -4 -3 -12 -4 -18 -1 -5 -3
-14 -4 -18 -1 -11 -61 -11 -61 0 0 5 -4 6 -10 3 -6 -4 -7 1 -3 11 4 11 8 13
11 6 5 -16 19 -15 25 1 3 7 -5 13 -19 13 -14 1 -24 -4 -24 -11 0 -23 -24 -23
-60 -2 -19 12 -37 24 -40 28 -5 7 -26 5 -51 -6 -10 -3 -20 -2 -24 4 -11 19
-33 12 -41 -11 -4 -13 -6 -25 -5 -26 1 -2 -6 -10 -16 -18 -10 -7 -14 -14 -9
-14 5 0 3 -7 -4 -15 -9 -11 -9 -15 -1 -15 7 0 9 -5 6 -10 -4 -6 -12 -7 -18 -3
-7 4 -5 -2 3 -12 14 -17 13 -18 -2 -12 -10 3 -20 1 -24 -5 -4 -6 -3 -8 4 -4 6
3 13 2 16 -3 3 -5 -4 -11 -16 -14 -12 -4 -19 -9 -16 -12 3 -4 19 0 36 9 28 15
30 14 59 -19 17 -19 28 -37 24 -41 -3 -4 0 -4 7 0 11 6 9 12 -7 27 -21 20 -30
45 -12 35 14 -9 20 16 9 38 -10 18 -9 18 14 0 13 -10 25 -26 25 -37 2 -14 -1
-16 -11 -8 -10 9 -15 8 -19 -3 -4 -11 -1 -13 10 -9 12 5 14 3 8 -8 -4 -8 -5
-11 0 -7 4 4 20 1 36 -7 34 -18 46 -5 25 27 -17 25 -8 50 18 54 18 3 20 -5 6
-26 -8 -12 -10 -12 -10 -1 0 8 -3 12 -6 9 -3 -4 0 -17 7 -30 7 -12 12 -27 10
-33 -8 -28 -9 -45 -1 -50 4 -3 7 3 5 12 -1 10 2 26 6 35 6 10 5 19 -1 23 -5 3
-10 11 -10 17 0 6 9 3 20 -7 18 -17 20 -17 14 -2 -8 21 2 22 22 3 11 -11 11
-16 1 -19 -9 -4 -9 -6 0 -6 26 -2 22 19 -7 40 -16 13 -30 27 -30 32 0 9 63
-32 68 -45 2 -4 13 -2 23 6 11 8 28 12 39 9 10 -3 21 0 24 6 4 6 12 11 18 11
6 0 6 -6 -2 -15 -7 -9 -10 -18 -6 -22 3 -3 6 -1 6 6 0 7 5 9 12 5 6 -4 8 -3 5
3 -9 14 22 55 35 47 7 -4 5 -10 -6 -16 -20 -11 -21 -37 -1 -44 8 -4 15 -13 15
-22 0 -8 3 -13 6 -9 9 9 -6 48 -17 42 -5 -4 -9 1 -9 10 0 9 5 13 10 10 6 -3
11 -1 11 4 1 6 2 16 3 23 0 6 6 13 13 15 12 4 12 -14 -1 -35 -14 -23 19 -59
55 -59 30 0 31 1 11 10 -12 6 -22 14 -22 19 0 4 -5 8 -11 8 -8 0 -8 -5 1 -15
8 -10 9 -15 2 -15 -10 0 -32 30 -32 43 0 12 38 2 57 -16 17 -15 26 -17 36 -9
8 7 16 10 18 7 3 -2 5 4 5 15 0 10 -5 18 -10 17 -6 -1 -11 4 -12 11 -1 6 -3
15 -4 20 -1 4 -2 11 -1 16 1 5 -5 4 -13 -4 -19 -15 -22 0 -4 18 7 7 9 13 5 13
-4 1 -11 2 -17 3 -5 0 -16 10 -25 21 -14 19 -15 19 -10 -10 5 -33 -8 -64 -19
-46 -4 6 -2 11 3 11 6 0 11 5 11 11 0 8 -5 7 -15 -1 -13 -10 -19 -9 -38 6 -21
19 -21 19 -7 0 12 -16 12 -18 1 -11 -9 5 -12 4 -7 -3 3 -6 1 -14 -5 -18 -7 -4
-9 -3 -6 3 4 6 -3 9 -18 8 -14 -2 -23 2 -21 8 2 7 1 9 -1 5 -3 -5 -9 -8 -15
-8 -7 0 -7 4 -1 13 6 6 9 19 8 28 -2 9 4 16 11 16 8 0 14 -4 14 -9 0 -4 -5 -8
-12 -8 -16 0 -1 -13 18 -16 10 -2 14 3 10 12 -7 18 14 14 34 -6 8 -9 12 -11 7
-4 -4 6 -1 17 7 24 13 10 15 8 11 -9 -4 -21 9 -29 20 -11 6 10 -29 50 -44 50
-5 0 -11 -7 -15 -15 -4 -12 -10 -13 -31 -3 -24 11 -25 11 -5 25 11 8 20 18 20
24 0 15 -14 10 -32 -13z m-268 -50 c0 -5 5 -8 10 -8 6 0 9 5 8 11 -5 18 18 21
35 4 18 -17 31 -20 21 -4 -4 8 0 8 15 0 11 -7 20 -15 20 -19 -3 -20 2 -33 11
-27 6 4 8 10 6 14 -3 4 1 8 9 8 8 0 12 -4 9 -8 -2 -4 0 -10 6 -14 5 -3 10 -1
10 4 0 12 27 10 48 -2 7 -5 12 -3 12 4 0 8 5 6 13 -4 6 -10 23 -19 36 -22 13
-2 26 -7 29 -10 3 -3 14 2 24 12 10 9 18 13 18 10 0 -4 0 -9 0 -12 0 -3 -2 -4
-4 -2 -2 1 -13 -6 -24 -16 -12 -11 -25 -16 -30 -13 -6 3 -12 -1 -16 -9 -3 -8
-16 -14 -28 -14 -13 1 -31 -2 -40 -5 -11 -5 -24 0 -37 13 -12 12 -21 18 -21
15 0 -4 -6 -2 -12 3 -15 10 -45 10 -70 -1 -17 -8 -17 -41 2 -60 18 -18 10 -26
-15 -14 -19 9 -22 14 -14 25 9 10 8 13 0 13 -7 0 -10 4 -7 8 3 5 -9 19 -25 31
-23 17 -34 20 -42 12 -8 -8 -8 -11 2 -11 7 0 9 -4 6 -10 -3 -5 0 -10 7 -10 8
0 6 -5 -5 -11 -13 -7 -22 -7 -31 0 -7 6 -15 8 -19 5 -4 -5 -3 16 2 34 1 1 1 5
2 10 0 4 5 13 11 20 8 8 7 12 -3 12 -9 1 -6 5 6 13 11 7 20 18 21 25 2 30 5
32 24 20 11 -7 20 -16 20 -20z m421 -35 c2 1 -2 -3 -9 -10 -11 -9 -11 -13 0
-19 7 -5 18 -9 23 -9 6 0 10 -4 10 -10 0 -5 4 -16 9 -23 15 -25 -9 -33 -34
-12 -13 11 -29 19 -36 16 -14 -6 -12 23 3 32 5 4 9 17 8 29 -1 16 2 20 10 13
7 -5 14 -9 16 -7z m-306 -83 c3 -5 1 -10 -4 -10 -6 0 -11 5 -11 10 0 6 2 10 4
10 3 0 8 -4 11 -10z"/>
<path d="M1994 495 c3 -8 -2 -19 -12 -24 -9 -6 -13 -11 -8 -11 5 0 3 -7 -4
-15 -7 -8 -9 -15 -5 -15 4 0 2 -6 -4 -14 -9 -10 -8 -16 3 -26 13 -10 15 -8 11
8 -2 12 3 26 10 32 11 9 20 7 40 -8 24 -19 41 -20 70 -3 16 9 55 9 61 0 2 -4
13 -6 24 -4 12 2 24 -4 30 -16 9 -16 15 -17 31 -9 11 6 23 9 28 6 5 -3 14 1
21 9 6 7 19 11 28 8 9 -3 14 -3 10 1 -11 13 -42 14 -56 3 -11 -9 -13 -7 -10 8
1 11 -3 20 -9 21 -7 1 -15 3 -18 4 -13 6 -31 5 -42 -2 -6 -5 -14 -4 -18 2 -5
7 -11 8 -19 1 -9 -7 -17 -5 -28 9 -12 13 -13 20 -5 24 8 3 8 5 1 5 -6 1 -18
-7 -25 -16 -12 -14 -12 -16 1 -9 8 4 5 -1 -8 -12 -15 -14 -18 -22 -10 -24 7
-3 -2 -5 -20 -5 -18 0 -29 3 -24 6 5 3 8 14 6 24 -1 10 2 14 8 11 7 -4 8 -2 4
4 -4 7 1 10 14 7 11 -2 20 0 20 4 0 13 -30 35 -37 27 -3 -3 0 -6 7 -6 9 0 7
-5 -5 -14 -17 -12 -21 -12 -33 5 -16 22 -37 26 -28 4z m39 -52 c-6 -14 -7 -14
-18 0 -11 15 -13 15 -30 -1 -18 -16 -18 -16 -4 3 7 11 18 23 24 27 14 10 35
-11 28 -29z m95 4 c9 -10 6 -13 -13 -13 -19 0 -22 3 -13 13 6 7 12 13 13 13 1
0 7 -6 13 -13z m66 -8 c5 8 27 8 46 1 3 -1 8 -2 11 -2 4 1 5 -7 2 -18 -3 -11
-9 -17 -14 -14 -5 3 -9 0 -9 -7 0 -7 -6 -4 -14 7 -8 10 -24 20 -35 20 -31 2
-33 3 -26 14 5 8 11 8 20 0 8 -7 15 -7 19 -1z"/>
<path d="M2211 424 c6 -7 16 -11 21 -8 11 7 3 17 -18 20 -12 2 -13 -1 -3 -12z"/>
<path d="M2062 454 c-14 -16 -5 -18 17 -5 7 5 9 11 5 14 -5 3 -15 -1 -22 -9z"/>
<path d="M2431 406 c2 -2 15 -9 29 -15 24 -11 24 -11 6 3 -16 13 -49 24 -35
12z"/>
<path d="M2310 458 c0 -4 4 -8 9 -8 6 0 12 4 15 8 3 5 -1 9 -9 9 -8 0 -15 -4
-15 -9z"/>
<path d="M1940 349 c-11 -8 -12 -12 -3 -16 7 -2 15 -4 19 -3 4 1 10 -4 15 -11
4 -8 10 -11 13 -9 2 3 -3 15 -12 27 -13 17 -21 20 -32 12z"/>
<path d="M2238 349 c-10 -5 -18 -15 -18 -22 0 -8 3 -9 8 -1 4 6 16 16 27 22
11 6 16 11 10 11 -5 0 -18 -4 -27 -10z"/>
<path d="M2272 344 c-7 -8 -8 -14 -3 -14 10 0 25 19 20 25 -2 1 -10 -3 -17
-11z"/>
<path d="M2314 336 c-3 -9 -11 -13 -17 -9 -6 3 -7 1 -3 -5 3 -6 16 -9 27 -7
17 3 20 0 16 -15 -3 -11 -1 -17 4 -14 13 8 5 57 -9 62 -7 2 -15 -3 -18 -12z
m26 0 c0 -3 -4 -8 -10 -11 -5 -3 -10 -1 -10 4 0 6 5 11 10 11 6 0 10 -2 10 -4z"/>
<path d="M2490 340 c0 -5 5 -10 10 -10 6 0 10 5 10 10 0 6 -4 10 -10 10 -5 0
-10 -4 -10 -10z"/>
<path d="M2190 320 c-13 -8 -12 -10 3 -10 9 0 17 5 17 10 0 12 -1 12 -20 0z"/>
<path d="M2236 315 c-9 -26 -7 -32 5 -12 6 10 9 21 6 23 -2 3 -7 -2 -11 -11z"/>
<path d="M2390 320 c0 -5 5 -10 11 -10 5 0 7 5 4 10 -3 6 -8 10 -11 10 -2 0
-4 -4 -4 -10z"/>
<path d="M2523 322 c-7 -4 -9 -13 -4 -21 6 -9 10 -7 14 8 3 12 4 21 4 21 -1 0
-7 -4 -14 -8z"/>
<path d="M1883 301 c-10 -15 -9 -20 2 -25 10 -3 12 0 8 11 -4 11 -2 14 5 9 8
-5 10 -2 6 8 -8 20 -7 20 -21 -3z"/>
<path d="M1910 316 c0 -2 6 -9 14 -15 11 -9 16 -9 22 0 4 8 3 9 -4 5 -7 -4
-12 -2 -12 3 0 6 -4 11 -10 11 -5 0 -10 -2 -10 -4z"/>
<path d="M2036 305 c-3 -8 -1 -15 4 -15 6 0 10 7 10 15 0 8 -2 15 -4 15 -2 0
-6 -7 -10 -15z"/>
<path d="M2426 304 c-9 -24 -2 -26 12 -4 7 11 8 20 3 20 -5 0 -12 -7 -15 -16z"/>
<path d="M2461 298 c-13 -21 -13 -22 2 -9 14 11 20 11 34 0 15 -13 15 -12 2 9
-8 12 -16 22 -19 22 -3 0 -11 -10 -19 -22z"/>
<path d="M3163 304 c9 -11 15 -24 12 -27 -3 -4 -2 -5 2 -2 4 3 8 13 9 21 1 9
0 13 -3 10 -4 -3 -13 0 -22 6 -12 10 -12 7 2 -8z"/>
<path d="M2264 294 c-18 -14 -18 -15 4 -4 12 6 22 13 22 15 0 8 -5 6 -26 -11z"/>
<path d="M3113 295 c0 -8 4 -12 9 -9 5 3 6 10 3 15 -9 13 -12 11 -12 -6z"/>
<path d="M3313 293 c0 -9 4 -10 14 -2 7 6 13 12 13 14 0 1 -6 2 -13 2 -8 0
-14 -6 -14 -14z"/>
<path d="M3417 295 c-4 -8 -3 -16 1 -19 4 -3 9 4 9 15 2 23 -3 25 -10 4z"/>
<path d="M2190 296 c0 -2 8 -10 18 -17 15 -13 16 -12 3 4 -13 16 -21 21 -21
13z"/>
<path d="M2155 280 c-16 -7 -17 -9 -3 -9 9 -1 20 4 23 9 7 11 7 11 -20 0z"/>
<path d="M2279 273 c-13 -16 -12 -17 4 -4 9 7 17 15 17 17 0 8 -8 3 -21 -13z"/>
<path d="M2913 265 c0 -8 4 -12 9 -9 5 3 6 10 3 15 -9 13 -12 11 -12 -6z"/>
<path d="M1955 260 c3 -5 8 -10 11 -10 2 0 4 5 4 10 0 6 -5 10 -11 10 -5 0 -7
-4 -4 -10z"/>
<path d="M2353 253 c0 -9 4 -10 14 -2 7 6 13 12 13 14 0 1 -6 2 -13 2 -8 0
-14 -6 -14 -14z"/>
<path d="M2390 258 c0 -4 4 -8 9 -8 6 0 12 4 15 8 3 5 -1 9 -9 9 -8 0 -15 -4
-15 -9z"/>
<path d="M2445 259 c-3 -4 2 -6 10 -5 21 3 28 13 10 13 -9 0 -18 -4 -20 -8z"/>
<path d="M2950 258 c0 -4 4 -8 9 -8 6 0 12 4 15 8 3 5 -1 9 -9 9 -8 0 -15 -4
-15 -9z"/>
<path d="M1869 237 c6 -8 7 -18 3 -22 -4 -5 -1 -5 6 -1 10 6 10 11 1 22 -6 8
-14 14 -16 14 -3 0 0 -6 6 -13z"/>
<path d="M3053 235 c0 -8 4 -12 9 -9 5 3 6 10 3 15 -9 13 -12 11 -12 -6z"/>
<path d="M3155 240 c3 -5 8 -10 11 -10 2 0 4 5 4 10 0 6 -5 10 -11 10 -5 0 -7
-4 -4 -10z"/>
<path d="M2355 221 c-3 -5 -2 -12 3 -15 5 -3 9 1 9 9 0 17 -3 19 -12 6z"/>
<path d="M2016 202 c-3 -5 1 -9 9 -9 8 0 12 4 9 9 -3 4 -7 8 -9 8 -2 0 -6 -4
-9 -8z"/>
<path d="M2075 200 c3 -5 8 -10 11 -10 2 0 4 5 4 10 0 6 -5 10 -11 10 -5 0 -7
-4 -4 -10z"/>
<path d="M2256 202 c-3 -5 1 -9 9 -9 8 0 12 4 9 9 -3 4 -7 8 -9 8 -2 0 -6 -4
-9 -8z"/>
<path d="M2710 146 c0 -2 7 -7 16 -10 8 -3 12 -2 9 4 -6 10 -25 14 -25 6z"/>
</g>
</svg>
